# xmcd
#
# Track frame offsets: 
#        150
#        12598
#        28465
#        42686
#        58707
#        73811
#        87607
#        102096
#        115125
#        130582
#        143975
#        158117
#
# Disc length: 2369 seconds
#
# Revision: 2
# Processed by: cddbd v1.5.2PL0 Copyright (c) Steve Scherf et al.
# Submitted via: ExactAudioCopy v1.1
#
DISCID=b2093f0c
DTITLE=Truck Stop - Easy rider
DYEAR=1900
DGENRE=Country
TTITLE0=Der wilde, wilde Westen
TTITLE1=Ich möcht' so gern Dave Dudley hör'n
TTITLE2=Nashville Tennessee
TTITLE3=Der Roadie von der Country Band
TTITLE4=Easy Rider
TTITLE5=Hillybilly, Country Lilly
TTITLE6=Der Tramp
TTITLE7=Die Frau mit dem Gurt
TTITLE8=Henry's Farm
TTITLE9=Take it easy, altes Haus
TTITLE10=Das gibt's doch nur in Dallas
TTITLE11=Nein danke, ich rauch' nicht mehr
EXTD=
EXTT0=
EXTT1=
EXTT2=
EXTT3=
EXTT4=
EXTT5=
EXTT6=
EXTT7=
EXTT8=
EXTT9=
EXTT10=
EXTT11=
PLAYORDER=
